#
#
#

mtllib cube.mtl


#
# 
#
g 


#
# _lambert1
#
usemtl _lambert1

v -0.500000 -0.500000 0.500000
v 0.500000 -0.500000 0.500000
v -0.500000 0.500000 0.500000
v 0.500000 0.500000 0.500000
v -0.500000 0.500000 -0.500000
v 0.500000 0.500000 -0.500000
v -0.500000 -0.500000 -0.500000
v 0.500000 -0.500000 -0.500000
vn 0.000000 0.000000 1.000000
vn 0.000000 1.000000 0.000000
vn 0.000000 0.000000 -1.000000
vn 0.000000 -1.000000 0.000000
vn 1.000000 0.000000 0.000000
vn -1.000000 0.000000 0.000000
vt 0.375000 0.249095
vt 0.625000 0.249095
vt 0.625000 0.499095
vt 0.375000 0.499095
vt 0.625000 0.749095
vt 0.375000 0.749095
vt 0.625000 0.999095
vt 0.375000 0.999095
vt 0.375000 -0.000905
vt 0.625000 -0.000905
vt 0.875000 0.249095
vt 0.875000 0.499095
vt 0.125000 0.249095
vt 0.125000 0.499095
f 1/1/1 2/2/1 4/3/1 3/4/1
f 3/4/2 4/3/2 6/5/2 5/6/2
f 5/6/3 6/5/3 8/7/3 7/8/3
f 7/9/4 8/10/4 2/2/4 1/1/4
f 2/2/5 8/11/5 6/12/5 4/3/5
f 7/13/6 1/1/6 3/4/6 5/14/6
